<svg width="40" height="25" viewBox="0 0 40 25" fill="none" xmlns="http://www.w3.org/2000/svg">
<path d="M0.710227 24V0.727272H10.0284C11.7405 0.727272 13.1686 0.98106 14.3125 1.48864C15.4564 1.99621 16.3163 2.70076 16.892 3.60227C17.4678 4.49621 17.7557 5.52652 17.7557 6.69318C17.7557 7.60227 17.5739 8.40152 17.2102 9.09091C16.8466 9.77273 16.3466 10.3333 15.7102 10.7727C15.0814 11.2045 14.3617 11.5114 13.5511 11.6932V11.9205C14.4375 11.9583 15.267 12.2083 16.0398 12.6705C16.8201 13.1326 17.4527 13.7803 17.9375 14.6136C18.4223 15.4394 18.6648 16.4242 18.6648 17.5682C18.6648 18.803 18.358 19.9053 17.7443 20.875C17.1383 21.8371 16.2405 22.5985 15.0511 23.1591C13.8617 23.7197 12.3958 24 10.6534 24H0.710227ZM5.63068 19.9773H9.64205C11.0133 19.9773 12.0133 19.7159 12.642 19.1932C13.2708 18.6629 13.5852 17.9583 13.5852 17.0795C13.5852 16.4356 13.4299 15.8674 13.1193 15.375C12.8087 14.8826 12.3655 14.4962 11.7898 14.2159C11.2216 13.9356 10.5436 13.7955 9.75568 13.7955H5.63068V19.9773ZM5.63068 10.4659H9.27841C9.95265 10.4659 10.5511 10.3485 11.0739 10.1136C11.6042 9.87121 12.0208 9.5303 12.3239 9.09091C12.6345 8.65152 12.7898 8.125 12.7898 7.51136C12.7898 6.67045 12.4905 5.99242 11.892 5.47727C11.3011 4.96212 10.4602 4.70454 9.36932 4.70454H5.63068V10.4659Z" fill="black"/>
<path d="M30.4119 24.3182C28.6619 24.3182 27.1051 24.0341 25.7415 23.4659C24.3854 22.8902 23.321 22.1061 22.5483 21.1136C21.7756 20.1212 21.3892 18.9962 21.3892 17.7386C21.3892 16.7689 21.6089 15.8788 22.0483 15.0682C22.4953 14.25 23.1013 13.572 23.8665 13.0341C24.6316 12.4886 25.4877 12.1402 26.4347 11.9886V11.8295C25.1922 11.5795 24.1847 10.9773 23.4119 10.0227C22.6392 9.06061 22.2528 7.94318 22.2528 6.67045C22.2528 5.46591 22.6051 4.39394 23.3097 3.45454C24.0142 2.50757 24.9801 1.76515 26.2074 1.22727C27.4422 0.681817 28.8438 0.40909 30.4119 0.40909C31.9801 0.40909 33.3778 0.681817 34.6051 1.22727C35.84 1.77273 36.8097 2.51894 37.5142 3.46591C38.2188 4.4053 38.5748 5.47348 38.5824 6.67045C38.5748 7.95076 38.1809 9.06818 37.4006 10.0227C36.6203 10.9773 35.6203 11.5795 34.4006 11.8295V11.9886C35.3324 12.1402 36.1771 12.4886 36.9347 13.0341C37.6998 13.572 38.3059 14.25 38.7528 15.0682C39.2074 15.8788 39.4384 16.7689 39.446 17.7386C39.4384 18.9962 39.0483 20.1212 38.2756 21.1136C37.5028 22.1061 36.4347 22.8902 35.071 23.4659C33.715 24.0341 32.1619 24.3182 30.4119 24.3182ZM30.4119 20.7045C31.1922 20.7045 31.8741 20.5644 32.4574 20.2841C33.0407 19.9962 33.4953 19.6023 33.821 19.1023C34.1544 18.5947 34.321 18.0114 34.321 17.3523C34.321 16.678 34.1506 16.0833 33.8097 15.5682C33.4688 15.0455 33.0066 14.6364 32.4233 14.3409C31.84 14.0379 31.1695 13.8864 30.4119 13.8864C29.6619 13.8864 28.9915 14.0379 28.4006 14.3409C27.8097 14.6364 27.3438 15.0455 27.0028 15.5682C26.6695 16.0833 26.5028 16.678 26.5028 17.3523C26.5028 18.0114 26.6657 18.5947 26.9915 19.1023C27.3172 19.6023 27.7756 19.9962 28.3665 20.2841C28.9574 20.5644 29.6392 20.7045 30.4119 20.7045ZM30.4119 10.3068C31.0634 10.3068 31.643 10.1742 32.1506 9.90909C32.6581 9.64394 33.0559 9.27651 33.3438 8.80682C33.6316 8.33712 33.7756 7.79545 33.7756 7.18182C33.7756 6.57576 33.6316 6.04545 33.3438 5.59091C33.0559 5.12879 32.6619 4.76894 32.1619 4.51136C31.6619 4.24621 31.0786 4.11364 30.4119 4.11364C29.7528 4.11364 29.1695 4.24621 28.6619 4.51136C28.1544 4.76894 27.7566 5.12879 27.4688 5.59091C27.1884 6.04545 27.0483 6.57576 27.0483 7.18182C27.0483 7.79545 27.1922 8.33712 27.4801 8.80682C27.768 9.27651 28.1657 9.64394 28.6733 9.90909C29.1809 10.1742 29.7604 10.3068 30.4119 10.3068Z" fill="#9B7EBD"/>
</svg>
